{"title":"Rihanna - Only Girl {In The World} [KingPinVideos]","uid":5887234,"size":90834563,"categoryP":"video","categoryS":"music_videos","magnet":"?xt=urn:btih:3b42aa818686bc5ad07032332e79582477206fa1&amp;dn=Rihanna+-+Only+Girl+%7BIn+The+World%7D+%5BKingPinVideos%5D&amp;tr=udp%3A%2F%2Ftracker.openbittorrent.com%3A80&amp;tr=udp%3A%2F%2Fopen.demonii.com%3A1337&amp;tr=udp%3A%2F%2Ftracker.coppersurfer.tk%3A6969&amp;tr=udp%3A%2F%2Fexodus.desync.com%3A6969","seeders":2,"leechers":1,"uploader":"KingPinMan","files":5,"time":1287101628,"description":"[img]http://img524.imageshack.us/img524/8452/rihannaonlygirl2.png[/img]\n\n[img]http://img176.imageshack.us/img176/7183/rihannaonlygirl.png[/img]\n\n[code]General\nComplete name                    : Rihanna - Only Girl {In The World} [KingPinVideos].mpg\nFormat                           : MPEG-PS\nFile size                        : 86.6 MiB\nDuration                         : 4mn 14s\nOverall bit rate                 : 2 856 Kbps\nWriting library                  : encoded by TMPGEnc 4.0 XPress Version. 4.7.4.299\n\nVideo\nID                               : 224 (0xE0)\nFormat                           : MPEG Video\nFormat version                   : Version 1\nFormat settings, BVOP            : Yes\nFormat settings, Matrix          : Default\nDuration                         : 4mn 14s\nBit rate mode                    : Constant\nBit rate                         : 2 615 Kbps\nNominal bit rate                 : 2 700 Kbps\nWidth                            : 384 pixels\nHeight                           : 208 pixels\nDisplay aspect ratio             : 16:9\nFrame rate                       : 29.970 fps\nResolution                       : 8 bits\nScan type                        : Progressive\nBits/(Pixel*Frame)               : 1.092\nStream size                      : 79.3 MiB (92%)\nWriting library                  : TMPGEnc XPress 4.7.4.299\n\nAudio\nID                               : 192 (0xC0)\nFormat                           : MPEG Audio\nFormat version                   : Version 1\nFormat profile                   : Layer 2\nDuration                         : 4mn 14s\nBit rate mode                    : Constant\nBit rate                         : 128 Kbps\nChannel(s)                       : 2 channels\nSampling rate                    : 48.0 KHz\nStream size                      : 3.88 MiB (4%)[/code]","torrent":{"xt":"urn:btih:3b42aa818686bc5ad07032332e79582477206fa1","amp;dn":"Rihanna+-+Only+Girl+%7BIn+The+World%7D+%5BKingPinVideos%5D","amp;tr":["udp%3A%2F%2Ftracker.openbittorrent.com%3A80","udp%3A%2F%2Fopen.demonii.com%3A1337","udp%3A%2F%2Ftracker.coppersurfer.tk%3A6969","udp%3A%2F%2Fexodus.desync.com%3A6969"],"infoHash":"3b42aa818686bc5ad07032332e79582477206fa1","infoHashBuffer":{"type":"Buffer","data":[59,66,170,129,134,134,188,90,208,112,50,51,46,121,88,36,119,32,111,161]},"announce":[],"urlList":[]}}